<mxfile host="app.diagrams.net" agent="Mozilla/5.0 (Windows NT 10.0; Win64; x64; rv:136.0) Gecko/20100101 Firefox/136.0" version="26.0.11">
  <diagram name="Страница — 1" id="EvDnBLfQG2KmDGP87N0U">
    <mxGraphModel dx="1562" dy="846" grid="1" gridSize="10" guides="1" tooltips="1" connect="1" arrows="1" fold="1" page="1" pageScale="1" pageWidth="827" pageHeight="1169" math="0" shadow="0">
      <root>
        <mxCell id="0" />
        <mxCell id="1" parent="0" />
        <mxCell id="jQ_gSmYXYYQrfykyb0Ew-1" value="" style="sketch=0;points=[[0.015,0.015,0],[0.985,0.015,0],[0.985,0.985,0],[0.015,0.985,0],[0.25,0,0],[0.5,0,0],[0.75,0,0],[1,0.25,0],[1,0.5,0],[1,0.75,0],[0.75,1,0],[0.5,1,0],[0.25,1,0],[0,0.75,0],[0,0.5,0],[0,0.25,0]];verticalLabelPosition=bottom;html=1;verticalAlign=top;aspect=fixed;align=center;pointerEvents=1;shape=mxgraph.cisco19.rect;prIcon=nexus_9500;fillColor=#FAFAFA;strokeColor=#005073;" vertex="1" parent="1">
          <mxGeometry x="230" y="320" width="50" height="73" as="geometry" />
        </mxCell>
        <mxCell id="jQ_gSmYXYYQrfykyb0Ew-2" value="" style="sketch=0;points=[[0.015,0.015,0],[0.985,0.015,0],[0.985,0.985,0],[0.015,0.985,0],[0.25,0,0],[0.5,0,0],[0.75,0,0],[1,0.25,0],[1,0.5,0],[1,0.75,0],[0.75,1,0],[0.5,1,0],[0.25,1,0],[0,0.75,0],[0,0.5,0],[0,0.25,0]];verticalLabelPosition=bottom;html=1;verticalAlign=top;aspect=fixed;align=center;pointerEvents=1;shape=mxgraph.cisco19.rect;prIcon=nexus_9500;fillColor=#FAFAFA;strokeColor=#005073;" vertex="1" parent="1">
          <mxGeometry x="440" y="320" width="50" height="73" as="geometry" />
        </mxCell>
        <mxCell id="jQ_gSmYXYYQrfykyb0Ew-3" value="" style="sketch=0;points=[[0.015,0.015,0],[0.985,0.015,0],[0.985,0.985,0],[0.015,0.985,0],[0.25,0,0],[0.5,0,0],[0.75,0,0],[1,0.25,0],[1,0.5,0],[1,0.75,0],[0.75,1,0],[0.5,1,0],[0.25,1,0],[0,0.75,0],[0,0.5,0],[0,0.25,0]];verticalLabelPosition=bottom;html=1;verticalAlign=top;aspect=fixed;align=center;pointerEvents=1;shape=mxgraph.cisco19.rect;prIcon=nexus_9300;fillColor=#FAFAFA;strokeColor=#005073;" vertex="1" parent="1">
          <mxGeometry x="110" y="600" width="50" height="50" as="geometry" />
        </mxCell>
        <mxCell id="jQ_gSmYXYYQrfykyb0Ew-4" value="" style="sketch=0;points=[[0.015,0.015,0],[0.985,0.015,0],[0.985,0.985,0],[0.015,0.985,0],[0.25,0,0],[0.5,0,0],[0.75,0,0],[1,0.25,0],[1,0.5,0],[1,0.75,0],[0.75,1,0],[0.5,1,0],[0.25,1,0],[0,0.75,0],[0,0.5,0],[0,0.25,0]];verticalLabelPosition=bottom;html=1;verticalAlign=top;aspect=fixed;align=center;pointerEvents=1;shape=mxgraph.cisco19.rect;prIcon=nexus_9300;fillColor=#FAFAFA;strokeColor=#005073;" vertex="1" parent="1">
          <mxGeometry x="320" y="600" width="50" height="50" as="geometry" />
        </mxCell>
        <mxCell id="jQ_gSmYXYYQrfykyb0Ew-5" value="" style="sketch=0;points=[[0.015,0.015,0],[0.985,0.015,0],[0.985,0.985,0],[0.015,0.985,0],[0.25,0,0],[0.5,0,0],[0.75,0,0],[1,0.25,0],[1,0.5,0],[1,0.75,0],[0.75,1,0],[0.5,1,0],[0.25,1,0],[0,0.75,0],[0,0.5,0],[0,0.25,0]];verticalLabelPosition=bottom;html=1;verticalAlign=top;aspect=fixed;align=center;pointerEvents=1;shape=mxgraph.cisco19.rect;prIcon=nexus_9300;fillColor=#FAFAFA;strokeColor=#005073;" vertex="1" parent="1">
          <mxGeometry x="540" y="600" width="50" height="50" as="geometry" />
        </mxCell>
        <mxCell id="jQ_gSmYXYYQrfykyb0Ew-71" value="Схема сети DC1" style="text;html=1;align=center;verticalAlign=middle;resizable=0;points=[];autosize=1;strokeColor=none;fillColor=none;fontSize=20;fontStyle=0" vertex="1" parent="1">
          <mxGeometry x="259" y="240" width="180" height="40" as="geometry" />
        </mxCell>
        <mxCell id="jQ_gSmYXYYQrfykyb0Ew-72" value="Spine-1" style="text;html=1;align=center;verticalAlign=middle;resizable=0;points=[];autosize=1;strokeColor=none;fillColor=none;fontStyle=1" vertex="1" parent="1">
          <mxGeometry x="170" y="320" width="60" height="30" as="geometry" />
        </mxCell>
        <mxCell id="jQ_gSmYXYYQrfykyb0Ew-73" value="Spine-2" style="text;html=1;align=center;verticalAlign=middle;resizable=0;points=[];autosize=1;strokeColor=none;fillColor=none;fontStyle=1" vertex="1" parent="1">
          <mxGeometry x="490" y="320" width="60" height="30" as="geometry" />
        </mxCell>
        <mxCell id="jQ_gSmYXYYQrfykyb0Ew-74" value="Leaf-1" style="text;html=1;align=center;verticalAlign=middle;resizable=0;points=[];autosize=1;strokeColor=none;fillColor=none;fontStyle=1" vertex="1" parent="1">
          <mxGeometry x="50" y="600" width="60" height="30" as="geometry" />
        </mxCell>
        <mxCell id="jQ_gSmYXYYQrfykyb0Ew-75" value="Leaf-2" style="text;html=1;align=center;verticalAlign=middle;resizable=0;points=[];autosize=1;strokeColor=none;fillColor=none;fontStyle=1" vertex="1" parent="1">
          <mxGeometry x="260" y="600" width="60" height="30" as="geometry" />
        </mxCell>
        <mxCell id="jQ_gSmYXYYQrfykyb0Ew-76" value="Leaf-3" style="text;html=1;align=center;verticalAlign=middle;resizable=0;points=[];autosize=1;strokeColor=none;fillColor=none;fontStyle=1" vertex="1" parent="1">
          <mxGeometry x="480" y="600" width="60" height="30" as="geometry" />
        </mxCell>
        <mxCell id="jQ_gSmYXYYQrfykyb0Ew-77" value="" style="endArrow=none;html=1;rounded=0;entryX=0.015;entryY=0.985;entryDx=0;entryDy=0;entryPerimeter=0;exitX=0.25;exitY=0;exitDx=0;exitDy=0;exitPerimeter=0;" edge="1" parent="1" source="jQ_gSmYXYYQrfykyb0Ew-3" target="jQ_gSmYXYYQrfykyb0Ew-1">
          <mxGeometry width="50" height="50" relative="1" as="geometry">
            <mxPoint x="390" y="560" as="sourcePoint" />
            <mxPoint x="440" y="510" as="targetPoint" />
          </mxGeometry>
        </mxCell>
        <mxCell id="jQ_gSmYXYYQrfykyb0Ew-78" value="" style="endArrow=none;html=1;rounded=0;entryX=0.015;entryY=0.985;entryDx=0;entryDy=0;entryPerimeter=0;exitX=0.985;exitY=0.015;exitDx=0;exitDy=0;exitPerimeter=0;" edge="1" parent="1" source="jQ_gSmYXYYQrfykyb0Ew-3" target="jQ_gSmYXYYQrfykyb0Ew-2">
          <mxGeometry width="50" height="50" relative="1" as="geometry">
            <mxPoint x="390" y="560" as="sourcePoint" />
            <mxPoint x="440" y="510" as="targetPoint" />
          </mxGeometry>
        </mxCell>
        <mxCell id="jQ_gSmYXYYQrfykyb0Ew-79" value="" style="endArrow=none;html=1;rounded=0;exitX=0.25;exitY=0;exitDx=0;exitDy=0;exitPerimeter=0;entryX=0.25;entryY=1;entryDx=0;entryDy=0;entryPerimeter=0;" edge="1" parent="1" source="jQ_gSmYXYYQrfykyb0Ew-4" target="jQ_gSmYXYYQrfykyb0Ew-1">
          <mxGeometry width="50" height="50" relative="1" as="geometry">
            <mxPoint x="390" y="560" as="sourcePoint" />
            <mxPoint x="440" y="510" as="targetPoint" />
          </mxGeometry>
        </mxCell>
        <mxCell id="jQ_gSmYXYYQrfykyb0Ew-80" value="" style="endArrow=none;html=1;rounded=0;entryX=0.25;entryY=1;entryDx=0;entryDy=0;entryPerimeter=0;exitX=0.75;exitY=0;exitDx=0;exitDy=0;exitPerimeter=0;" edge="1" parent="1" source="jQ_gSmYXYYQrfykyb0Ew-4" target="jQ_gSmYXYYQrfykyb0Ew-2">
          <mxGeometry width="50" height="50" relative="1" as="geometry">
            <mxPoint x="390" y="560" as="sourcePoint" />
            <mxPoint x="440" y="510" as="targetPoint" />
          </mxGeometry>
        </mxCell>
        <mxCell id="jQ_gSmYXYYQrfykyb0Ew-81" value="" style="endArrow=none;html=1;rounded=0;entryX=0.985;entryY=0.985;entryDx=0;entryDy=0;entryPerimeter=0;exitX=0.25;exitY=0;exitDx=0;exitDy=0;exitPerimeter=0;" edge="1" parent="1" source="jQ_gSmYXYYQrfykyb0Ew-5" target="jQ_gSmYXYYQrfykyb0Ew-1">
          <mxGeometry width="50" height="50" relative="1" as="geometry">
            <mxPoint x="390" y="560" as="sourcePoint" />
            <mxPoint x="440" y="510" as="targetPoint" />
          </mxGeometry>
        </mxCell>
        <mxCell id="jQ_gSmYXYYQrfykyb0Ew-82" value="" style="endArrow=none;html=1;rounded=0;entryX=0.75;entryY=1;entryDx=0;entryDy=0;entryPerimeter=0;exitX=0.75;exitY=0;exitDx=0;exitDy=0;exitPerimeter=0;" edge="1" parent="1" source="jQ_gSmYXYYQrfykyb0Ew-5" target="jQ_gSmYXYYQrfykyb0Ew-2">
          <mxGeometry width="50" height="50" relative="1" as="geometry">
            <mxPoint x="390" y="560" as="sourcePoint" />
            <mxPoint x="440" y="510" as="targetPoint" />
          </mxGeometry>
        </mxCell>
        <mxCell id="jQ_gSmYXYYQrfykyb0Ew-83" value="IP адресация DC1" style="shape=table;startSize=30;container=1;collapsible=0;childLayout=tableLayout;fontStyle=1" vertex="1" parent="1">
          <mxGeometry x="640" y="293.5" width="800" height="379" as="geometry" />
        </mxCell>
        <mxCell id="jQ_gSmYXYYQrfykyb0Ew-114" style="shape=tableRow;horizontal=0;startSize=0;swimlaneHead=0;swimlaneBody=0;strokeColor=inherit;top=0;left=0;bottom=0;right=0;collapsible=0;dropTarget=0;fillColor=none;points=[[0,0.5],[1,0.5]];portConstraint=eastwest;" vertex="1" parent="jQ_gSmYXYYQrfykyb0Ew-83">
          <mxGeometry y="30" width="800" height="60" as="geometry" />
        </mxCell>
        <mxCell id="jQ_gSmYXYYQrfykyb0Ew-115" value="Main block" style="shape=partialRectangle;html=1;whiteSpace=wrap;connectable=0;strokeColor=inherit;overflow=hidden;fillColor=none;top=0;left=0;bottom=0;right=0;pointerEvents=1;fontStyle=1" vertex="1" parent="jQ_gSmYXYYQrfykyb0Ew-114">
          <mxGeometry width="90" height="60" as="geometry">
            <mxRectangle width="90" height="60" as="alternateBounds" />
          </mxGeometry>
        </mxCell>
        <mxCell id="jQ_gSmYXYYQrfykyb0Ew-116" value="Sub block Loopback" style="shape=partialRectangle;html=1;whiteSpace=wrap;connectable=0;strokeColor=inherit;overflow=hidden;fillColor=none;top=0;left=0;bottom=0;right=0;pointerEvents=1;" vertex="1" parent="jQ_gSmYXYYQrfykyb0Ew-114">
          <mxGeometry x="90" width="170" height="60" as="geometry">
            <mxRectangle width="170" height="60" as="alternateBounds" />
          </mxGeometry>
        </mxCell>
        <mxCell id="jQ_gSmYXYYQrfykyb0Ew-117" value="Sub block p2p" style="shape=partialRectangle;html=1;whiteSpace=wrap;connectable=0;strokeColor=inherit;overflow=hidden;fillColor=none;top=0;left=0;bottom=0;right=0;pointerEvents=1;" vertex="1" parent="jQ_gSmYXYYQrfykyb0Ew-114">
          <mxGeometry x="260" width="120" height="60" as="geometry">
            <mxRectangle width="120" height="60" as="alternateBounds" />
          </mxGeometry>
        </mxCell>
        <mxCell id="jQ_gSmYXYYQrfykyb0Ew-128" value="Services" style="shape=partialRectangle;html=1;whiteSpace=wrap;connectable=0;strokeColor=inherit;overflow=hidden;fillColor=none;top=0;left=0;bottom=0;right=0;pointerEvents=1;" vertex="1" parent="jQ_gSmYXYYQrfykyb0Ew-114">
          <mxGeometry x="380" width="110" height="60" as="geometry">
            <mxRectangle width="110" height="60" as="alternateBounds" />
          </mxGeometry>
        </mxCell>
        <mxCell id="jQ_gSmYXYYQrfykyb0Ew-118" value="&lt;div&gt;Interface IP address&lt;/div&gt;" style="shape=partialRectangle;html=1;whiteSpace=wrap;connectable=0;strokeColor=inherit;overflow=hidden;fillColor=none;top=0;left=0;bottom=0;right=0;pointerEvents=1;" vertex="1" parent="jQ_gSmYXYYQrfykyb0Ew-114">
          <mxGeometry x="490" width="170" height="60" as="geometry">
            <mxRectangle width="170" height="60" as="alternateBounds" />
          </mxGeometry>
        </mxCell>
        <mxCell id="jQ_gSmYXYYQrfykyb0Ew-119" value="Name interface" style="shape=partialRectangle;html=1;whiteSpace=wrap;connectable=0;strokeColor=inherit;overflow=hidden;fillColor=none;top=0;left=0;bottom=0;right=0;pointerEvents=1;" vertex="1" parent="jQ_gSmYXYYQrfykyb0Ew-114">
          <mxGeometry x="660" width="140" height="60" as="geometry">
            <mxRectangle width="140" height="60" as="alternateBounds" />
          </mxGeometry>
        </mxCell>
        <mxCell id="jQ_gSmYXYYQrfykyb0Ew-84" value="" style="shape=tableRow;horizontal=0;startSize=0;swimlaneHead=0;swimlaneBody=0;strokeColor=inherit;top=0;left=0;bottom=0;right=0;collapsible=0;dropTarget=0;fillColor=none;points=[[0,0.5],[1,0.5]];portConstraint=eastwest;" vertex="1" parent="jQ_gSmYXYYQrfykyb0Ew-83">
          <mxGeometry y="90" width="800" height="60" as="geometry" />
        </mxCell>
        <mxCell id="jQ_gSmYXYYQrfykyb0Ew-85" value="10.0.0.0/13" style="shape=partialRectangle;html=1;whiteSpace=wrap;connectable=0;strokeColor=inherit;overflow=hidden;fillColor=none;top=0;left=0;bottom=0;right=0;pointerEvents=1;rowspan=6;colspan=1;" vertex="1" parent="jQ_gSmYXYYQrfykyb0Ew-84">
          <mxGeometry width="90" height="289" as="geometry">
            <mxRectangle width="90" height="60" as="alternateBounds" />
          </mxGeometry>
        </mxCell>
        <mxCell id="jQ_gSmYXYYQrfykyb0Ew-86" value="10.0.0.0/16" style="shape=partialRectangle;html=1;whiteSpace=wrap;connectable=0;strokeColor=inherit;overflow=hidden;fillColor=none;top=0;left=0;bottom=0;right=0;pointerEvents=1;" vertex="1" parent="jQ_gSmYXYYQrfykyb0Ew-84">
          <mxGeometry x="90" width="170" height="60" as="geometry">
            <mxRectangle width="170" height="60" as="alternateBounds" />
          </mxGeometry>
        </mxCell>
        <mxCell id="jQ_gSmYXYYQrfykyb0Ew-87" value="" style="shape=partialRectangle;html=1;whiteSpace=wrap;connectable=0;strokeColor=inherit;overflow=hidden;fillColor=none;top=0;left=0;bottom=0;right=0;pointerEvents=1;" vertex="1" parent="jQ_gSmYXYYQrfykyb0Ew-84">
          <mxGeometry x="260" width="120" height="60" as="geometry">
            <mxRectangle width="120" height="60" as="alternateBounds" />
          </mxGeometry>
        </mxCell>
        <mxCell id="jQ_gSmYXYYQrfykyb0Ew-129" style="shape=partialRectangle;html=1;whiteSpace=wrap;connectable=0;strokeColor=inherit;overflow=hidden;fillColor=none;top=0;left=0;bottom=0;right=0;pointerEvents=1;" vertex="1" parent="jQ_gSmYXYYQrfykyb0Ew-84">
          <mxGeometry x="380" width="110" height="60" as="geometry">
            <mxRectangle width="110" height="60" as="alternateBounds" />
          </mxGeometry>
        </mxCell>
        <mxCell id="jQ_gSmYXYYQrfykyb0Ew-88" value="&lt;div&gt;Spine 1 - 10.0.1.0/32&lt;/div&gt;&lt;div&gt;Spine 2 -10.0.2.0/32&lt;/div&gt;&lt;div&gt;&lt;br&gt;&lt;/div&gt;" style="shape=partialRectangle;html=1;whiteSpace=wrap;connectable=0;strokeColor=inherit;overflow=hidden;fillColor=none;top=0;left=0;bottom=0;right=0;pointerEvents=1;" vertex="1" parent="jQ_gSmYXYYQrfykyb0Ew-84">
          <mxGeometry x="490" width="170" height="60" as="geometry">
            <mxRectangle width="170" height="60" as="alternateBounds" />
          </mxGeometry>
        </mxCell>
        <mxCell id="jQ_gSmYXYYQrfykyb0Ew-120" value="&lt;div&gt;Loopback0&lt;/div&gt;" style="shape=partialRectangle;html=1;whiteSpace=wrap;connectable=0;strokeColor=inherit;overflow=hidden;fillColor=none;top=0;left=0;bottom=0;right=0;pointerEvents=1;" vertex="1" parent="jQ_gSmYXYYQrfykyb0Ew-84">
          <mxGeometry x="660" width="140" height="60" as="geometry">
            <mxRectangle width="140" height="60" as="alternateBounds" />
          </mxGeometry>
        </mxCell>
        <mxCell id="jQ_gSmYXYYQrfykyb0Ew-89" value="" style="shape=tableRow;horizontal=0;startSize=0;swimlaneHead=0;swimlaneBody=0;strokeColor=inherit;top=0;left=0;bottom=0;right=0;collapsible=0;dropTarget=0;fillColor=none;points=[[0,0.5],[1,0.5]];portConstraint=eastwest;" vertex="1" parent="jQ_gSmYXYYQrfykyb0Ew-83">
          <mxGeometry y="150" width="800" height="59" as="geometry" />
        </mxCell>
        <mxCell id="jQ_gSmYXYYQrfykyb0Ew-90" value="" style="shape=partialRectangle;html=1;whiteSpace=wrap;connectable=0;strokeColor=inherit;overflow=hidden;fillColor=none;top=0;left=0;bottom=0;right=0;pointerEvents=1;" vertex="1" visible="0" parent="jQ_gSmYXYYQrfykyb0Ew-89">
          <mxGeometry width="90" height="59" as="geometry">
            <mxRectangle width="90" height="59" as="alternateBounds" />
          </mxGeometry>
        </mxCell>
        <mxCell id="jQ_gSmYXYYQrfykyb0Ew-91" value="&lt;div&gt;10.1.0.0/16&lt;/div&gt;" style="shape=partialRectangle;html=1;whiteSpace=wrap;connectable=0;strokeColor=inherit;overflow=hidden;fillColor=none;top=0;left=0;bottom=0;right=0;pointerEvents=1;" vertex="1" parent="jQ_gSmYXYYQrfykyb0Ew-89">
          <mxGeometry x="90" width="170" height="59" as="geometry">
            <mxRectangle width="170" height="59" as="alternateBounds" />
          </mxGeometry>
        </mxCell>
        <mxCell id="jQ_gSmYXYYQrfykyb0Ew-92" value="" style="shape=partialRectangle;html=1;whiteSpace=wrap;connectable=0;strokeColor=inherit;overflow=hidden;fillColor=none;top=0;left=0;bottom=0;right=0;pointerEvents=1;" vertex="1" parent="jQ_gSmYXYYQrfykyb0Ew-89">
          <mxGeometry x="260" width="120" height="59" as="geometry">
            <mxRectangle width="120" height="59" as="alternateBounds" />
          </mxGeometry>
        </mxCell>
        <mxCell id="jQ_gSmYXYYQrfykyb0Ew-130" style="shape=partialRectangle;html=1;whiteSpace=wrap;connectable=0;strokeColor=inherit;overflow=hidden;fillColor=none;top=0;left=0;bottom=0;right=0;pointerEvents=1;" vertex="1" parent="jQ_gSmYXYYQrfykyb0Ew-89">
          <mxGeometry x="380" width="110" height="59" as="geometry">
            <mxRectangle width="110" height="59" as="alternateBounds" />
          </mxGeometry>
        </mxCell>
        <mxCell id="jQ_gSmYXYYQrfykyb0Ew-93" value="&lt;div&gt;Leaf-1 - 10.1.0.1/32&lt;/div&gt;&lt;div&gt;Leaf-2 - 10.1.0.2/32&lt;/div&gt;&lt;div&gt;Leaf-3 - 10.1.0.3/32&lt;/div&gt;" style="shape=partialRectangle;html=1;whiteSpace=wrap;connectable=0;strokeColor=inherit;overflow=hidden;fillColor=none;top=0;left=0;bottom=0;right=0;pointerEvents=1;" vertex="1" parent="jQ_gSmYXYYQrfykyb0Ew-89">
          <mxGeometry x="490" width="170" height="59" as="geometry">
            <mxRectangle width="170" height="59" as="alternateBounds" />
          </mxGeometry>
        </mxCell>
        <mxCell id="jQ_gSmYXYYQrfykyb0Ew-121" value="Loopback1" style="shape=partialRectangle;html=1;whiteSpace=wrap;connectable=0;strokeColor=inherit;overflow=hidden;fillColor=none;top=0;left=0;bottom=0;right=0;pointerEvents=1;" vertex="1" parent="jQ_gSmYXYYQrfykyb0Ew-89">
          <mxGeometry x="660" width="140" height="59" as="geometry">
            <mxRectangle width="140" height="59" as="alternateBounds" />
          </mxGeometry>
        </mxCell>
        <mxCell id="jQ_gSmYXYYQrfykyb0Ew-94" value="" style="shape=tableRow;horizontal=0;startSize=0;swimlaneHead=0;swimlaneBody=0;strokeColor=inherit;top=0;left=0;bottom=0;right=0;collapsible=0;dropTarget=0;fillColor=none;points=[[0,0.5],[1,0.5]];portConstraint=eastwest;" vertex="1" parent="jQ_gSmYXYYQrfykyb0Ew-83">
          <mxGeometry y="209" width="800" height="111" as="geometry" />
        </mxCell>
        <mxCell id="jQ_gSmYXYYQrfykyb0Ew-95" value="" style="shape=partialRectangle;html=1;whiteSpace=wrap;connectable=0;strokeColor=inherit;overflow=hidden;fillColor=none;top=0;left=0;bottom=0;right=0;pointerEvents=1;" vertex="1" visible="0" parent="jQ_gSmYXYYQrfykyb0Ew-94">
          <mxGeometry width="90" height="111" as="geometry">
            <mxRectangle width="90" height="111" as="alternateBounds" />
          </mxGeometry>
        </mxCell>
        <mxCell id="jQ_gSmYXYYQrfykyb0Ew-96" value="" style="shape=partialRectangle;html=1;whiteSpace=wrap;connectable=0;strokeColor=inherit;overflow=hidden;fillColor=none;top=0;left=0;bottom=0;right=0;pointerEvents=1;" vertex="1" parent="jQ_gSmYXYYQrfykyb0Ew-94">
          <mxGeometry x="90" width="170" height="111" as="geometry">
            <mxRectangle width="170" height="111" as="alternateBounds" />
          </mxGeometry>
        </mxCell>
        <mxCell id="jQ_gSmYXYYQrfykyb0Ew-97" value="10.2.0.0/16" style="shape=partialRectangle;html=1;whiteSpace=wrap;connectable=0;strokeColor=inherit;overflow=hidden;fillColor=none;top=0;left=0;bottom=0;right=0;pointerEvents=1;" vertex="1" parent="jQ_gSmYXYYQrfykyb0Ew-94">
          <mxGeometry x="260" width="120" height="111" as="geometry">
            <mxRectangle width="120" height="111" as="alternateBounds" />
          </mxGeometry>
        </mxCell>
        <mxCell id="jQ_gSmYXYYQrfykyb0Ew-131" style="shape=partialRectangle;html=1;whiteSpace=wrap;connectable=0;strokeColor=inherit;overflow=hidden;fillColor=none;top=0;left=0;bottom=0;right=0;pointerEvents=1;" vertex="1" parent="jQ_gSmYXYYQrfykyb0Ew-94">
          <mxGeometry x="380" width="110" height="111" as="geometry">
            <mxRectangle width="110" height="111" as="alternateBounds" />
          </mxGeometry>
        </mxCell>
        <mxCell id="jQ_gSmYXYYQrfykyb0Ew-98" value="&lt;div&gt;Leaf1-Spine1 - 10.2.1.0/31&lt;/div&gt;&lt;div&gt;Leaf2-Spine1 - 10.2.1.2/31&lt;/div&gt;&lt;div&gt;Leaf3-Spine1 - 10.2.1.4/31&lt;/div&gt;&lt;div&gt;Leaf1-Spine2 - 10.2.2.0/31&lt;/div&gt;&lt;div&gt;Leaf2-Spine2 - 10.2.2.2/31&lt;/div&gt;&lt;div&gt;Leaf3-Spine2 - 10.2.2.4/31&lt;/div&gt;" style="shape=partialRectangle;html=1;whiteSpace=wrap;connectable=0;strokeColor=inherit;overflow=hidden;fillColor=none;top=0;left=0;bottom=0;right=0;pointerEvents=1;" vertex="1" parent="jQ_gSmYXYYQrfykyb0Ew-94">
          <mxGeometry x="490" width="170" height="111" as="geometry">
            <mxRectangle width="170" height="111" as="alternateBounds" />
          </mxGeometry>
        </mxCell>
        <mxCell id="jQ_gSmYXYYQrfykyb0Ew-122" value="Eth" style="shape=partialRectangle;html=1;whiteSpace=wrap;connectable=0;strokeColor=inherit;overflow=hidden;fillColor=none;top=0;left=0;bottom=0;right=0;pointerEvents=1;" vertex="1" parent="jQ_gSmYXYYQrfykyb0Ew-94">
          <mxGeometry x="660" width="140" height="111" as="geometry">
            <mxRectangle width="140" height="111" as="alternateBounds" />
          </mxGeometry>
        </mxCell>
        <mxCell id="jQ_gSmYXYYQrfykyb0Ew-99" value="" style="shape=tableRow;horizontal=0;startSize=0;swimlaneHead=0;swimlaneBody=0;strokeColor=inherit;top=0;left=0;bottom=0;right=0;collapsible=0;dropTarget=0;fillColor=none;points=[[0,0.5],[1,0.5]];portConstraint=eastwest;" vertex="1" parent="jQ_gSmYXYYQrfykyb0Ew-83">
          <mxGeometry y="320" width="800" height="59" as="geometry" />
        </mxCell>
        <mxCell id="jQ_gSmYXYYQrfykyb0Ew-100" value="" style="shape=partialRectangle;html=1;whiteSpace=wrap;connectable=0;strokeColor=inherit;overflow=hidden;fillColor=none;top=0;left=0;bottom=0;right=0;pointerEvents=1;" vertex="1" visible="0" parent="jQ_gSmYXYYQrfykyb0Ew-99">
          <mxGeometry width="90" height="59" as="geometry">
            <mxRectangle width="90" height="59" as="alternateBounds" />
          </mxGeometry>
        </mxCell>
        <mxCell id="jQ_gSmYXYYQrfykyb0Ew-101" value="" style="shape=partialRectangle;html=1;whiteSpace=wrap;connectable=0;strokeColor=inherit;overflow=hidden;fillColor=none;top=0;left=0;bottom=0;right=0;pointerEvents=1;" vertex="1" parent="jQ_gSmYXYYQrfykyb0Ew-99">
          <mxGeometry x="90" width="170" height="59" as="geometry">
            <mxRectangle width="170" height="59" as="alternateBounds" />
          </mxGeometry>
        </mxCell>
        <mxCell id="jQ_gSmYXYYQrfykyb0Ew-102" value="" style="shape=partialRectangle;html=1;whiteSpace=wrap;connectable=0;strokeColor=inherit;overflow=hidden;fillColor=none;top=0;left=0;bottom=0;right=0;pointerEvents=1;" vertex="1" parent="jQ_gSmYXYYQrfykyb0Ew-99">
          <mxGeometry x="260" width="120" height="59" as="geometry">
            <mxRectangle width="120" height="59" as="alternateBounds" />
          </mxGeometry>
        </mxCell>
        <mxCell id="jQ_gSmYXYYQrfykyb0Ew-132" value="10.4.0.0/14" style="shape=partialRectangle;html=1;whiteSpace=wrap;connectable=0;strokeColor=inherit;overflow=hidden;fillColor=none;top=0;left=0;bottom=0;right=0;pointerEvents=1;" vertex="1" parent="jQ_gSmYXYYQrfykyb0Ew-99">
          <mxGeometry x="380" width="110" height="59" as="geometry">
            <mxRectangle width="110" height="59" as="alternateBounds" />
          </mxGeometry>
        </mxCell>
        <mxCell id="jQ_gSmYXYYQrfykyb0Ew-103" value="" style="shape=partialRectangle;html=1;whiteSpace=wrap;connectable=0;strokeColor=inherit;overflow=hidden;fillColor=none;top=0;left=0;bottom=0;right=0;pointerEvents=1;" vertex="1" parent="jQ_gSmYXYYQrfykyb0Ew-99">
          <mxGeometry x="490" width="170" height="59" as="geometry">
            <mxRectangle width="170" height="59" as="alternateBounds" />
          </mxGeometry>
        </mxCell>
        <mxCell id="jQ_gSmYXYYQrfykyb0Ew-123" style="shape=partialRectangle;html=1;whiteSpace=wrap;connectable=0;strokeColor=inherit;overflow=hidden;fillColor=none;top=0;left=0;bottom=0;right=0;pointerEvents=1;" vertex="1" parent="jQ_gSmYXYYQrfykyb0Ew-99">
          <mxGeometry x="660" width="140" height="59" as="geometry">
            <mxRectangle width="140" height="59" as="alternateBounds" />
          </mxGeometry>
        </mxCell>
        <mxCell id="jQ_gSmYXYYQrfykyb0Ew-135" value="Lo0 - 10.0.1.0/32" style="text;html=1;align=center;verticalAlign=middle;resizable=0;points=[];autosize=1;strokeColor=none;fillColor=none;fontColor=light-dark(#ff0000, #ce6100);" vertex="1" parent="1">
          <mxGeometry x="200" y="290" width="110" height="30" as="geometry" />
        </mxCell>
        <mxCell id="jQ_gSmYXYYQrfykyb0Ew-136" value="Lo0 -10.0.2.0/32" style="text;html=1;align=center;verticalAlign=middle;resizable=0;points=[];autosize=1;strokeColor=none;fillColor=none;fontColor=light-dark(#ff0000, #ededed);" vertex="1" parent="1">
          <mxGeometry x="414" y="290" width="110" height="30" as="geometry" />
        </mxCell>
        <mxCell id="jQ_gSmYXYYQrfykyb0Ew-137" value="Lo1 - 10.1.0.1/32" style="text;html=1;align=center;verticalAlign=middle;resizable=0;points=[];autosize=1;strokeColor=none;fillColor=none;fontColor=light-dark(#ff0000, #ededed);" vertex="1" parent="1">
          <mxGeometry x="80" y="650" width="110" height="30" as="geometry" />
        </mxCell>
        <mxCell id="jQ_gSmYXYYQrfykyb0Ew-138" value="Lo1 - 10.1.0.2/32" style="text;html=1;align=center;verticalAlign=middle;resizable=0;points=[];autosize=1;strokeColor=none;fillColor=none;fontColor=light-dark(#ff0000, #ededed);" vertex="1" parent="1">
          <mxGeometry x="290" y="650" width="110" height="30" as="geometry" />
        </mxCell>
        <mxCell id="jQ_gSmYXYYQrfykyb0Ew-139" value="Lo1 - 10.1.0.3/32" style="text;html=1;align=center;verticalAlign=middle;resizable=0;points=[];autosize=1;strokeColor=none;fillColor=none;fontColor=light-dark(#ff0000, #ededed);" vertex="1" parent="1">
          <mxGeometry x="510" y="650" width="110" height="30" as="geometry" />
        </mxCell>
        <mxCell id="jQ_gSmYXYYQrfykyb0Ew-140" value="10.2.1.0/31" style="text;html=1;align=center;verticalAlign=middle;resizable=0;points=[];autosize=1;strokeColor=none;fillColor=none;rotation=-60;" vertex="1" parent="1">
          <mxGeometry x="120" y="468" width="80" height="30" as="geometry" />
        </mxCell>
        <mxCell id="jQ_gSmYXYYQrfykyb0Ew-141" value=".1" style="text;html=1;align=center;verticalAlign=middle;resizable=0;points=[];autosize=1;strokeColor=none;fillColor=none;" vertex="1" parent="1">
          <mxGeometry x="100" y="570" width="30" height="30" as="geometry" />
        </mxCell>
        <mxCell id="jQ_gSmYXYYQrfykyb0Ew-142" value=".0" style="text;html=1;align=center;verticalAlign=middle;resizable=0;points=[];autosize=1;strokeColor=none;fillColor=none;" vertex="1" parent="1">
          <mxGeometry x="205" y="378" width="30" height="30" as="geometry" />
        </mxCell>
        <mxCell id="jQ_gSmYXYYQrfykyb0Ew-143" value="10.2.2.0/31" style="text;html=1;align=center;verticalAlign=middle;resizable=0;points=[];autosize=1;strokeColor=none;fillColor=none;rotation=-45;" vertex="1" parent="1">
          <mxGeometry x="175" y="520" width="80" height="30" as="geometry" />
        </mxCell>
        <mxCell id="jQ_gSmYXYYQrfykyb0Ew-144" value=".1" style="text;html=1;align=center;verticalAlign=middle;resizable=0;points=[];autosize=1;strokeColor=none;fillColor=none;" vertex="1" parent="1">
          <mxGeometry x="145" y="570" width="30" height="30" as="geometry" />
        </mxCell>
        <mxCell id="jQ_gSmYXYYQrfykyb0Ew-145" value=".0" style="text;html=1;align=center;verticalAlign=middle;resizable=0;points=[];autosize=1;strokeColor=none;fillColor=none;" vertex="1" parent="1">
          <mxGeometry x="410" y="370" width="30" height="30" as="geometry" />
        </mxCell>
        <mxCell id="jQ_gSmYXYYQrfykyb0Ew-146" value="10.2.1.2/31" style="text;html=1;align=center;verticalAlign=middle;resizable=0;points=[];autosize=1;strokeColor=none;fillColor=none;rotation=60;" vertex="1" parent="1">
          <mxGeometry x="250" y="530" width="80" height="30" as="geometry" />
        </mxCell>
        <mxCell id="jQ_gSmYXYYQrfykyb0Ew-147" value=".3" style="text;html=1;align=center;verticalAlign=middle;resizable=0;points=[];autosize=1;strokeColor=none;fillColor=none;" vertex="1" parent="1">
          <mxGeometry x="300" y="580" width="30" height="30" as="geometry" />
        </mxCell>
        <mxCell id="jQ_gSmYXYYQrfykyb0Ew-148" value=".2" style="text;html=1;align=center;verticalAlign=middle;resizable=0;points=[];autosize=1;strokeColor=none;fillColor=none;" vertex="1" parent="1">
          <mxGeometry x="225" y="408" width="30" height="30" as="geometry" />
        </mxCell>
        <mxCell id="jQ_gSmYXYYQrfykyb0Ew-149" value="10.2.2.2/31" style="text;html=1;align=center;verticalAlign=middle;resizable=0;points=[];autosize=1;strokeColor=none;fillColor=none;rotation=-55;" vertex="1" parent="1">
          <mxGeometry x="330" y="510" width="80" height="30" as="geometry" />
        </mxCell>
        <mxCell id="jQ_gSmYXYYQrfykyb0Ew-150" value=".3" style="text;html=1;align=center;verticalAlign=middle;resizable=0;points=[];autosize=1;strokeColor=none;fillColor=none;" vertex="1" parent="1">
          <mxGeometry x="340" y="570" width="30" height="30" as="geometry" />
        </mxCell>
        <mxCell id="jQ_gSmYXYYQrfykyb0Ew-152" value=".2" style="text;html=1;align=center;verticalAlign=middle;resizable=0;points=[];autosize=1;strokeColor=none;fillColor=none;" vertex="1" parent="1">
          <mxGeometry x="414" y="400" width="30" height="30" as="geometry" />
        </mxCell>
        <mxCell id="jQ_gSmYXYYQrfykyb0Ew-153" value="10.2.1.4/31" style="text;html=1;align=center;verticalAlign=middle;resizable=0;points=[];autosize=1;strokeColor=none;fillColor=none;rotation=30;" vertex="1" parent="1">
          <mxGeometry x="410" y="530" width="80" height="30" as="geometry" />
        </mxCell>
        <mxCell id="jQ_gSmYXYYQrfykyb0Ew-154" value=".4" style="text;html=1;align=center;verticalAlign=middle;resizable=0;points=[];autosize=1;strokeColor=none;fillColor=none;" vertex="1" parent="1">
          <mxGeometry x="270" y="390" width="30" height="30" as="geometry" />
        </mxCell>
        <mxCell id="jQ_gSmYXYYQrfykyb0Ew-155" value=".5" style="text;html=1;align=center;verticalAlign=middle;resizable=0;points=[];autosize=1;strokeColor=none;fillColor=none;" vertex="1" parent="1">
          <mxGeometry x="510" y="580" width="30" height="30" as="geometry" />
        </mxCell>
        <mxCell id="jQ_gSmYXYYQrfykyb0Ew-156" value="10.2.2.4/31" style="text;html=1;align=center;verticalAlign=middle;resizable=0;points=[];autosize=1;strokeColor=none;fillColor=none;rotation=60;" vertex="1" parent="1">
          <mxGeometry x="510" y="468" width="80" height="30" as="geometry" />
        </mxCell>
        <mxCell id="jQ_gSmYXYYQrfykyb0Ew-157" value=".4" style="text;html=1;align=center;verticalAlign=middle;resizable=0;points=[];autosize=1;strokeColor=none;fillColor=none;" vertex="1" parent="1">
          <mxGeometry x="475" y="388" width="30" height="30" as="geometry" />
        </mxCell>
        <mxCell id="jQ_gSmYXYYQrfykyb0Ew-158" value=".5" style="text;html=1;align=center;verticalAlign=middle;resizable=0;points=[];autosize=1;strokeColor=none;fillColor=none;" vertex="1" parent="1">
          <mxGeometry x="575" y="570" width="30" height="30" as="geometry" />
        </mxCell>
      </root>
    </mxGraphModel>
  </diagram>
</mxfile>
